<svg xmlns="http://www.w3.org/2000/svg" width="30" height="30" viewBox="0 0 30 30"><defs><style>.a{fill:#fff;}.b{fill:#4168e0;stroke:#4168e0;stroke-width:0.1px;}</style></defs><g transform="translate(14104 1483)"><circle class="a" cx="15" cy="15" r="15" transform="translate(-14104 -1483)"/><path class="b" d="M35.847,52.477c1.689,1.36,3.075,3.137,4.85,4.8a.8.8,0,0,0,1.12-.027l4.535-4.672a.8.8,0,0,1,.944-.15c.787.409.849,1.014.161,1.737-1.772,1.862-3.592,3.68-5.395,5.512a1.224,1.224,0,0,1-1.97-.034c-1.8-1.836-3.612-3.66-5.382-5.524-.684-.72-.617-1.264.26-1.734a.8.8,0,0,1,.877.09" transform="translate(-14129.748 -1523.795)"/></g></svg>